<svg width="39" height="39" viewBox="0 0 39 39" fill="none" xmlns="http://www.w3.org/2000/svg">
<rect x="1.16742" y="1.32929" width="36.9439" height="36.9439" rx="8.5515" stroke="#25242A" stroke-width="1.2743"/>
<path d="M12.6124 24.0322L12.4719 23.3295C12.0316 23.62 11.5772 23.8355 11.1087 23.976C10.6496 24.1072 10.2608 24.1728 9.94225 24.1728H9.30984C8.67274 24.1728 8.16212 23.9807 7.77799 23.5966C7.39386 23.2124 7.20179 22.7018 7.20179 22.0647V18.8324C7.20179 18.1297 7.39854 17.5816 7.79205 17.1881C8.19492 16.7852 8.74769 16.5838 9.45037 16.5838H12.3314V14.1947H14.7908V24.0322H12.6124ZM10.6449 22.135C11.1415 22.135 11.7036 22.0413 12.3314 21.8539V18.481H10.2233C9.84856 18.481 9.66118 18.6684 9.66118 19.0432V21.6431C9.66118 21.7836 9.70802 21.9008 9.80172 21.9945C9.89541 22.0881 10.0125 22.135 10.1531 22.135H10.6449ZM18.9349 18.2C18.5602 18.2 18.3728 18.3874 18.3728 18.7621V19.5351H20.7619V18.7621C20.7619 18.3874 20.5745 18.2 20.1998 18.2H18.9349ZM22.9402 23.8917C21.132 24.0791 19.4924 24.1728 18.0214 24.1728C17.3843 24.1728 16.8737 23.9807 16.4896 23.5966C16.1055 23.2124 15.9134 22.7018 15.9134 22.0647V18.6918C15.9134 17.9892 16.1101 17.4411 16.5036 17.0476C16.9065 16.6447 17.4593 16.4433 18.162 16.4433H20.9727C21.6754 16.4433 22.2235 16.6447 22.617 17.0476C23.0198 17.4411 23.2213 17.9892 23.2213 18.6918V21.2918H18.3728V21.8539C18.3728 21.9945 18.4196 22.1116 18.5133 22.2053C18.607 22.2989 18.7241 22.3458 18.8647 22.3458C19.7922 22.3458 21.1507 22.2755 22.9402 22.135V23.8917ZM29.1919 16.5838H31.7918L28.9811 24.0322H26.1703L23.3596 16.5838H25.9595L27.5757 21.6431L29.1919 16.5838ZM31.3707 21.9242H33.9004V24.0322H31.3707V21.9242Z" fill="white"/>
</svg>
