<svg width="39" height="40" viewBox="0 0 39 40" fill="none" xmlns="http://www.w3.org/2000/svg">
<rect x="0.640078" y="1.57709" width="36.9439" height="36.9439" rx="8.5515" stroke="#25242A" stroke-width="1.2743"/>
<path d="M19.1124 10.8526C16.7533 10.8526 14.491 11.7897 12.8229 13.4577C11.1549 15.126 10.2178 17.3884 10.2178 19.7472C10.2178 22.106 11.1549 24.3686 12.8229 26.0367C14.4912 27.7047 16.7535 28.6418 19.1124 28.6418C21.4712 28.6418 23.7338 27.7047 25.4019 26.0367C27.0699 24.3684 28.007 22.106 28.007 19.7472C28.007 18.1858 27.5959 16.6519 26.8153 15.2997C26.0347 13.9474 24.9118 12.8246 23.5596 12.044C22.2074 11.2633 20.6735 10.8523 19.1121 10.8523L19.1124 10.8526ZM19.1124 13.0764C19.5793 13.0764 20.5966 14.6719 20.9414 17.6627C19.7292 17.4779 18.4956 17.4779 17.2834 17.6627C17.6282 14.6717 18.6455 13.0764 19.1124 13.0764H19.1124ZM12.8249 21.9713C13.4787 21.441 14.1969 20.9954 14.9624 20.6454C15.0135 22.3306 15.3286 23.9973 15.8963 25.5849C14.4665 24.7946 13.3745 23.5096 12.8248 21.9713H12.8249ZM14.9986 18.2382C14.0996 18.558 13.2412 18.9824 12.4414 19.5028C12.5307 17.1612 13.8424 15.0383 15.8963 13.9103C15.3924 15.3028 15.0899 16.7601 14.9986 18.2383L14.9986 18.2382ZM19.1125 26.4184C18.5566 26.4184 17.2111 24.1473 17.1668 19.9388C18.4513 19.6836 19.7737 19.6836 21.0582 19.9388C21.0138 24.1473 19.6684 26.4184 19.1125 26.4184ZM22.3286 25.5844V25.5846C22.8965 23.9961 23.2116 22.3284 23.2626 20.6423C24.0283 20.9934 24.7465 21.4398 25.4 21.9711C24.8503 23.5094 23.7583 24.7944 22.3286 25.5847L22.3286 25.5844ZM23.2263 18.2382C23.135 16.76 22.8325 15.3026 22.3286 13.9101C24.3825 15.0382 25.6942 17.1611 25.7836 19.5027C24.9838 18.9823 24.1254 18.5579 23.2263 18.2381L23.2263 18.2382Z" fill="white"/>
</svg>
