<svg width="40" height="40" viewBox="0 0 40 40" fill="none" xmlns="http://www.w3.org/2000/svg">
<rect x="0.886963" y="0.939941" width="38.2182" height="38.2182" rx="9.18865" fill="#F9AA21"/>
<path d="M26.8109 16.9376L23.9193 14.046C23.6027 13.7294 23.1836 13.5696 22.7675 13.5696C22.3514 13.5696 21.9323 13.7294 21.6157 14.046L12.6907 22.971C11.9972 23.6645 11.6143 24.5871 11.6143 25.5701C11.6143 27.5963 13.2636 29.2456 15.2898 29.2456C16.2727 29.2456 17.1954 28.8627 17.8889 28.1692L26.8139 19.2442C27.4501 18.608 27.4501 17.5738 26.8139 16.9376H26.8109ZM16.6044 26.8907C16.2516 27.2435 15.7843 27.4365 15.2838 27.4365C14.2556 27.4365 13.4173 26.5983 13.4173 25.5701C13.4173 25.0726 13.6103 24.6022 13.9631 24.2494L18.9955 19.2171L21.6368 21.8584L16.6044 26.8907ZM22.9152 20.5799L20.2739 17.9386L22.7645 15.4481L25.4058 18.0894L22.9152 20.5799Z" fill="black"/>
<path d="M18.7093 12.1315L18.2299 11.8722C18.1876 11.8481 18.1515 11.8119 18.1273 11.7697L17.865 11.2872C17.7685 11.1093 17.5092 11.1093 17.4127 11.2872L17.1534 11.7666C17.1293 11.8089 17.0931 11.845 17.0509 11.8692L16.5685 12.1315C16.3906 12.228 16.3906 12.4873 16.5685 12.5838L17.0479 12.8431C17.0901 12.8672 17.1263 12.9034 17.1504 12.9456L17.4127 13.428C17.5092 13.6059 17.7685 13.6059 17.865 13.428L18.1243 12.9486C18.1484 12.9064 18.1846 12.8702 18.2268 12.8461L18.7093 12.5838C18.8872 12.4873 18.8872 12.228 18.7093 12.1315Z" fill="black"/>
<path d="M29.8655 11.833L29.3861 11.5707C29.3439 11.5465 29.3077 11.5104 29.2836 11.4681L29.0213 10.9857C28.9248 10.8078 28.6655 10.8078 28.569 10.9857L28.3097 11.4651C28.2856 11.5073 28.2494 11.5435 28.2072 11.5677L27.7247 11.83C27.5468 11.9265 27.5468 12.1858 27.7247 12.2823L28.2041 12.5416C28.2464 12.5657 28.2825 12.6019 28.3067 12.6441L28.569 13.1265C28.6655 13.3044 28.9248 13.3044 29.0213 13.1265L29.2806 12.6471C29.3047 12.6049 29.3409 12.5687 29.3831 12.5446L29.8625 12.2823C30.0404 12.1858 30.0404 11.9295 29.8625 11.83L29.8655 11.833Z" fill="black"/>
<path d="M29.564 23.2908L29.0846 23.0284C29.0424 23.0043 29.0062 22.9681 28.9821 22.9259L28.7198 22.4435C28.6233 22.2656 28.364 22.2656 28.2675 22.4435L28.0082 22.9229C27.984 22.9651 27.9479 23.0013 27.9057 23.0254L27.4232 23.2877C27.2453 23.3842 27.2453 23.6435 27.4232 23.74L27.9026 23.9993C27.9448 24.0234 27.981 24.0596 28.0052 24.1018L28.2675 24.5843C28.364 24.7622 28.6233 24.7622 28.7198 24.5843L28.9791 24.1049C29.0032 24.0626 29.0394 24.0265 29.0816 24.0023L29.561 23.74C29.7389 23.6435 29.7389 23.3872 29.561 23.2877L29.564 23.2908Z" fill="black"/>
</svg>
