<svg width="39" height="40" viewBox="0 0 39 40" fill="none" xmlns="http://www.w3.org/2000/svg">
<rect x="1.16742" y="1.57709" width="36.9439" height="36.9439" rx="8.5515" stroke="#25242A" stroke-width="1.2743"/>
<path d="M26.4542 16.9376L23.5626 14.046C23.246 13.7294 22.8269 13.5696 22.4108 13.5696C21.9947 13.5696 21.5756 13.7294 21.259 14.046L12.334 22.971C11.6405 23.6645 11.2576 24.5871 11.2576 25.5701C11.2576 27.5963 12.9069 29.2456 14.9331 29.2456C15.9161 29.2456 16.8387 28.8627 17.5322 28.1692L26.4572 19.2442C27.0934 18.608 27.0934 17.5738 26.4572 16.9376H26.4542ZM16.2477 26.8907C15.8949 27.2435 15.4276 27.4365 14.9271 27.4365C13.8989 27.4365 13.0607 26.5983 13.0607 25.5701C13.0607 25.0726 13.2536 24.6022 13.6064 24.2494L18.6388 19.2171L21.2801 21.8584L16.2477 26.8907ZM22.5585 20.5799L19.9172 17.9386L22.4078 15.4481L25.0491 18.0894L22.5585 20.5799Z" fill="white"/>
<path d="M18.3526 12.1315L17.8732 11.8722C17.831 11.8481 17.7948 11.8119 17.7707 11.7697L17.5083 11.2872C17.4118 11.1093 17.1525 11.1093 17.056 11.2872L16.7967 11.7666C16.7726 11.8089 16.7364 11.845 16.6942 11.8692L16.2118 12.1315C16.0339 12.228 16.0339 12.4873 16.2118 12.5838L16.6912 12.8431C16.7334 12.8672 16.7696 12.9034 16.7937 12.9456L17.056 13.428C17.1525 13.6059 17.4118 13.6059 17.5083 13.428L17.7676 12.9486C17.7918 12.9064 17.8279 12.8702 17.8702 12.8461L18.3526 12.5838C18.5305 12.4873 18.5305 12.228 18.3526 12.1315Z" fill="white"/>
<path d="M29.5088 11.833L29.0294 11.5707C28.9872 11.5465 28.951 11.5104 28.9269 11.4681L28.6646 10.9857C28.5681 10.8078 28.3088 10.8078 28.2123 10.9857L27.953 11.4651C27.9289 11.5073 27.8927 11.5435 27.8505 11.5677L27.368 11.83C27.1901 11.9265 27.1901 12.1858 27.368 12.2823L27.8475 12.5416C27.8897 12.5657 27.9259 12.6019 27.95 12.6441L28.2123 13.1265C28.3088 13.3044 28.5681 13.3044 28.6646 13.1265L28.9239 12.6471C28.948 12.6049 28.9842 12.5687 29.0264 12.5446L29.5058 12.2823C29.6837 12.1858 29.6837 11.9295 29.5058 11.83L29.5088 11.833Z" fill="white"/>
<path d="M29.2073 23.2908L28.7279 23.0284C28.6857 23.0043 28.6495 22.9681 28.6254 22.9259L28.3631 22.4435C28.2666 22.2656 28.0073 22.2656 27.9108 22.4435L27.6515 22.9229C27.6274 22.9651 27.5912 23.0013 27.549 23.0254L27.0665 23.2877C26.8886 23.3842 26.8886 23.6435 27.0665 23.74L27.5459 23.9993C27.5882 24.0234 27.6243 24.0596 27.6485 24.1018L27.9108 24.5843C28.0073 24.7622 28.2666 24.7622 28.3631 24.5843L28.6224 24.1049C28.6465 24.0626 28.6827 24.0265 28.7249 24.0023L29.2043 23.74C29.3822 23.6435 29.3822 23.3872 29.2043 23.2877L29.2073 23.2908Z" fill="white"/>
</svg>
