     
       <svg width="273" height="166" viewBox="0 0 273 166" fill="none" xmlns="http://www.w3.org/2000/svg">
<circle cx="17.3994" cy="147.857" r="17.4014" fill="#AC72FF"/>
<circle cx="17.3994" cy="147.857" r="17.4014" fill="url(#paint0_linear_0_1)" fill-opacity="0.4"/>
<path d="M8.66036 143.67V146.48C8.66036 150.917 11.5273 154.893 15.9646 156.609C16.4212 156.787 16.9061 156.877 17.3995 156.877C17.8929 156.877 18.3748 156.787 18.8344 156.609C23.2716 154.892 26.1387 150.918 26.1387 146.48V143.67C26.1387 141.758 24.7911 140.09 22.8658 139.619C21.3829 139.255 19.4209 138.838 17.3994 138.838C15.378 138.838 13.4161 139.255 11.933 139.619C10.0048 140.092 8.66016 141.758 8.66016 143.67H8.66036ZM17.3993 141.09C19.057 141.09 20.7087 141.409 22.3269 141.806C23.2515 142.035 23.8829 142.802 23.8829 143.667V146.478C23.8829 149.97 21.5769 153.128 18.0193 154.503C17.8219 154.579 17.6105 154.619 17.3992 154.619C17.1878 154.619 16.9764 154.579 16.779 154.503C13.2214 153.128 10.9154 149.97 10.9154 146.478V143.667C10.9154 142.802 11.5468 142.032 12.4714 141.806C14.0896 141.409 15.7386 141.09 17.399 141.09H17.3993Z" fill="black"/>
<path d="M15.0774 149.381C15.5481 149.852 16.1711 150.111 16.8365 150.111C17.5017 150.111 18.1276 149.852 18.5956 149.381L21.581 146.396C22.0207 145.956 22.0207 145.243 21.581 144.8C21.1413 144.361 20.4281 144.361 19.9855 144.8L17.0001 147.786C16.9128 147.873 16.7576 147.873 16.6703 147.786L15.3765 146.492C14.9368 146.052 14.2236 146.052 13.7809 146.492C13.3413 146.932 13.3413 147.645 13.7809 148.087L15.0748 149.381H15.0774Z" fill="black"/>
<path fill-rule="evenodd" clip-rule="evenodd" d="M35.5918 5.71748L19.2194 0.626953L2.7168 5.71371V9.94043V11.0318V28.6976L18.5586 35.4623L35.5918 28.7398V11.0711V9.94043V5.71748ZM31.5918 12.618L18.5627 17.6565L6.7168 12.7041V26.2035L18.625 31.0402L31.5918 26.1614V12.618ZM18.6209 13.3453L7.12689 8.54005L19.2142 4.81424L31.1139 8.5141L18.6209 13.3453Z" fill="#8057FE"/>
<path fill-rule="evenodd" clip-rule="evenodd" d="M51.0137 53.4294L34.6412 48.3389L18.1387 53.4256V57.6523V58.7437V76.4095L33.9804 84.1742L51.0137 76.4517V58.783V57.6523V53.4294ZM47.0137 60.3299L33.9846 65.3684L22.1387 60.416V73.9154L34.0469 79.7521L47.0137 73.8733V60.3299ZM34.0428 61.0572L22.5488 56.252L34.6361 52.5262L46.5358 56.226L34.0428 61.0572Z" fill="#292A2D"/>
<path fill-rule="evenodd" clip-rule="evenodd" d="M109.428 5.71748L93.0553 0.626953L76.5527 5.71371V9.94043V11.0318V28.6976L92.3945 36.4623L109.428 28.7398V11.0711V9.94043V5.71748ZM105.428 12.618L92.3986 17.6565L80.5527 12.7041V26.2035L92.461 32.0402L105.428 26.1614V12.618ZM92.4568 13.3453L80.9628 8.54005L93.0502 4.81424L104.95 8.5141L92.4568 13.3453Z" fill="#292A2D"/>
<path fill-rule="evenodd" clip-rule="evenodd" d="M124.854 53.4294L108.481 48.3389L91.9785 53.4256V57.6523V58.7437V76.4095L107.82 84.1742L124.854 76.4517V58.783V57.6523V53.4294ZM120.854 60.3299L107.824 65.3684L95.9785 60.416V73.9154L107.887 79.7521L120.854 73.8733V60.3299ZM107.883 61.0572L96.3886 56.252L108.476 52.5262L120.376 56.226L107.883 61.0572Z" fill="#292A2D"/>
<path fill-rule="evenodd" clip-rule="evenodd" d="M183.268 5.71748L166.895 0.626953L150.393 5.71371V9.94043V11.0318V28.6976L166.234 36.4623L183.268 28.7398V11.0711V9.94043V5.71748ZM179.268 12.618L166.238 17.6565L154.393 12.7041V26.2035L166.301 32.0402L179.268 26.1614V12.618ZM166.297 13.3453L154.803 8.54005L166.89 4.81424L178.79 8.5141L166.297 13.3453Z" fill="#292A2D"/>
<path fill-rule="evenodd" clip-rule="evenodd" d="M198.693 53.4294L182.321 48.3389L165.818 53.4256V57.6523V58.7437V76.4095L181.66 83.1742L198.693 76.4517V58.783V57.6523V53.4294ZM194.693 60.3299L181.664 65.3684L169.818 60.416V73.9154L181.727 78.7521L194.693 73.8733V60.3299ZM181.722 61.0572L170.228 56.252L182.316 52.5262L194.215 56.226L181.722 61.0572Z" fill="#5BEDB0"/>
<path fill-rule="evenodd" clip-rule="evenodd" d="M257.107 5.71748L240.735 0.626953L224.232 5.71371V9.94043V11.0318V28.6976L240.074 36.4623L257.107 28.7398V11.0711V9.94043V5.71748ZM253.107 12.618L240.078 17.6565L228.232 12.7041V26.2035L240.141 32.0402L253.107 26.1614V12.618ZM240.137 13.3453L228.643 8.54005L240.73 4.81424L252.63 8.5141L240.137 13.3453Z" fill="#292A2D"/>
<path fill-rule="evenodd" clip-rule="evenodd" d="M272.533 53.4294L256.161 48.3389L239.658 53.4256V57.6523V58.7437V76.4095L255.5 84.1742L272.533 76.4517V58.783V57.6523V53.4294ZM268.533 60.3299L255.504 65.3684L243.658 60.416V73.9154L255.566 79.7521L268.533 73.8733V60.3299ZM255.562 61.0572L244.068 56.252L256.156 52.5262L268.055 56.226L255.562 61.0572Z" fill="#292A2D"/>
<defs>
<linearGradient id="paint0_linear_0_1" x1="10.017" y1="136.025" x2="27.3729" y2="144.274" gradientUnits="userSpaceOnUse">
<stop stop-color="#7717FF"/>
<stop offset="1" stop-color="#A15FFF" stop-opacity="0"/>
</linearGradient>
</defs>
</svg>
