<svg width="39" height="40" viewBox="0 0 39 40" fill="none" xmlns="http://www.w3.org/2000/svg">
<rect x="0.359619" y="0.939941" width="38.2182" height="38.2182" rx="9.18865" fill="#8057FE"/>
<path d="M19.4691 10.8526C17.11 10.8526 14.8476 11.7897 13.1796 13.4577C11.5116 15.126 10.5745 17.3884 10.5745 19.7472C10.5745 22.106 11.5116 24.3686 13.1796 26.0367C14.8478 27.7047 17.1102 28.6418 19.4691 28.6418C21.8279 28.6418 24.0905 27.7047 25.7585 26.0367C27.4266 24.3684 28.3637 22.106 28.3637 19.7472C28.3637 18.1858 27.9526 16.6519 27.172 15.2997C26.3914 13.9474 25.2685 12.8246 23.9163 12.044C22.5641 11.2633 21.0302 10.8523 19.4688 10.8523L19.4691 10.8526ZM19.4691 13.0764C19.936 13.0764 20.9533 14.6719 21.2981 17.6627C20.0859 17.4779 18.8523 17.4779 17.6401 17.6627C17.9849 14.6717 19.0022 13.0764 19.4691 13.0764H19.4691ZM13.1816 21.9713C13.8354 21.441 14.5536 20.9954 15.319 20.6454C15.3702 22.3306 15.6853 23.9973 16.253 25.5849C14.8232 24.7946 13.7312 23.5096 13.1815 21.9713H13.1816ZM15.3553 18.2382C14.4563 18.558 13.5979 18.9824 12.798 19.5028C12.8874 17.1612 14.1991 15.0383 16.253 13.9103C15.7491 15.3028 15.4466 16.7601 15.3553 18.2383L15.3553 18.2382ZM19.4692 26.4184C18.9133 26.4184 17.5678 24.1473 17.5235 19.9388C18.808 19.6836 20.1304 19.6836 21.4149 19.9388C21.3705 24.1473 20.0251 26.4184 19.4692 26.4184ZM22.6853 25.5844V25.5846C23.2532 23.9961 23.5683 22.3284 23.6193 20.6423C24.385 20.9934 25.1031 21.4398 25.7567 21.9711C25.207 23.5094 24.115 24.7944 22.6852 25.5847L22.6853 25.5844ZM23.583 18.2382C23.4917 16.76 23.1892 15.3026 22.6853 13.9101C24.7392 15.0382 26.0509 17.1611 26.1403 19.5027C25.3405 18.9823 24.4821 18.5579 23.583 18.2381L23.583 18.2382Z" fill="black"/>
</svg>
