<svg width="39" height="40" viewBox="0 0 39 40" fill="none" xmlns="http://www.w3.org/2000/svg">
<rect x="0.640078" y="1.45111" width="36.9439" height="36.9439" rx="8.5515" stroke="#25242A" stroke-width="1.2743"/>
<path d="M28.7008 15.6556C28.2256 15.1802 27.6119 14.8677 26.9479 14.763C26.2838 14.6583 25.6037 14.7667 25.0052 15.0728L24.833 15.1602L21.3891 11.7163C21.1185 11.4456 20.7972 11.2308 20.4436 11.0843C20.0899 10.9377 19.7109 10.8623 19.3281 10.8623C18.9453 10.8623 18.5662 10.9377 18.2126 11.0843C17.8589 11.2308 17.5376 11.4456 17.267 11.7163L13.8231 15.1602L13.6509 15.0728C12.9766 14.728 12.2014 14.6352 11.4648 14.8112C10.7282 14.9871 10.0786 15.4203 9.63296 16.0327C9.18734 16.645 8.97499 17.3964 9.03413 18.1514C9.09326 18.9064 9.42001 19.6155 9.95553 20.151C10.491 20.6866 11.2002 21.0133 11.9552 21.0724C12.7102 21.1316 13.4616 20.9192 14.0739 20.4736C14.6863 20.028 15.1195 19.3784 15.2954 18.6418C15.4714 17.9052 15.3786 17.1299 15.0338 16.4557L14.9463 16.2835L18.5386 12.7044V21.9421L18.3558 22.0004C17.8385 22.1679 17.3727 22.4654 17.0031 22.8643C16.6335 23.2633 16.3725 23.7503 16.2449 24.279C16.1173 24.8076 16.1275 25.3602 16.2745 25.8838C16.4214 26.4074 16.7002 26.8845 17.0842 27.2696C17.6814 27.8668 18.4914 28.2023 19.336 28.2023C20.1806 28.2023 20.9906 27.8668 21.5878 27.2696C22.185 26.6724 22.5205 25.8624 22.5205 25.0178C22.5205 24.1732 22.185 23.3632 21.5878 22.766C21.233 22.4101 20.7978 22.1448 20.3189 21.9924L20.1281 21.9421V12.7044L23.7098 16.2861L23.6224 16.4583C23.3547 16.9802 23.2365 17.5659 23.2811 18.1508C23.3256 18.7356 23.531 19.2967 23.8747 19.772C24.2184 20.2473 24.6868 20.6183 25.2282 20.8439C25.7696 21.0695 26.3629 21.1409 26.9424 21.0502C27.5219 20.9595 28.065 20.7103 28.5116 20.3301C28.9582 19.9499 29.2909 19.4535 29.4729 18.8959C29.6549 18.3384 29.6792 17.7413 29.5429 17.1708C29.4066 16.6003 29.1152 16.0787 28.7008 15.6636V15.6556ZM13.3357 19.028C13.076 19.2885 12.7341 19.451 12.3681 19.4876C12.0021 19.5243 11.6348 19.4328 11.3287 19.229C11.0225 19.0251 10.7966 18.7213 10.6893 18.3695C10.5821 18.0177 10.6002 17.6396 10.7405 17.2996C10.8808 16.9596 11.1347 16.6788 11.4589 16.5051C11.783 16.3313 12.1574 16.2754 12.5183 16.3467C12.8791 16.4181 13.204 16.6124 13.4375 16.8965C13.6711 17.1806 13.799 17.537 13.7993 17.9048C13.8003 18.3254 13.6345 18.7293 13.3383 19.028H13.3357ZM20.4566 23.8972C20.7171 24.1568 20.8796 24.4988 20.9162 24.8647C20.9529 25.2307 20.8615 25.5981 20.6576 25.9042C20.4537 26.2103 20.1499 26.4362 19.7981 26.5435C19.4463 26.6508 19.0682 26.6327 18.7282 26.4924C18.3882 26.352 18.1074 26.0981 17.9337 25.774C17.7599 25.4498 17.704 25.0754 17.7753 24.7146C17.8467 24.3538 18.041 24.0289 18.3251 23.7953C18.6092 23.5617 18.9656 23.4339 19.3334 23.4336C19.7544 23.4333 20.1584 23.6 20.4566 23.8972ZM27.5749 19.028C27.3147 19.2879 26.9725 19.4495 26.6065 19.4853C26.2404 19.5211 25.8733 19.4289 25.5677 19.2244C25.2621 19.0199 25.0368 18.7157 24.9303 18.3637C24.8238 18.0117 24.8426 17.6336 24.9836 17.294C25.1246 16.9543 25.379 16.6741 25.7035 16.501C26.028 16.3279 26.4024 16.2726 26.7631 16.3447C27.1237 16.4167 27.4482 16.6116 27.6812 16.896C27.9143 17.1805 28.0415 17.537 28.0412 17.9048C28.0408 18.3262 27.8731 18.7302 27.5749 19.028Z" fill="white"/>
</svg>
